<?xml version="1.0" standalone="no"?>
<!DOCTYPE svg PUBLIC "-//W3C//DTD SVG 20010904//EN"
 "http://www.w3.org/TR/2001/REC-SVG-20010904/DTD/svg10.dtd">
<svg version="1.0" xmlns="http://www.w3.org/2000/svg"
 width="640.000000pt" height="640.000000pt" viewBox="0 0 640.000000 640.000000"
 preserveAspectRatio="xMidYMid meet">
<metadata>
Created by potrace 1.11, written by Peter Selinger 2001-2013
</metadata>
<g transform="translate(0.000000,640.000000) scale(0.100000,-0.100000)"
fill="#000000" stroke="none">
<path d="M2225 6190 c3 -14 17 -68 31 -120 52 -194 189 -723 199 -770 2 -8 11
-44 20 -80 9 -36 18 -72 20 -80 2 -8 19 -85 38 -170 31 -136 49 -233 72 -385
4 -22 6 -73 6 -113 -1 -140 -47 -167 -159 -95 -53 33 -249 222 -325 312 -20
25 -37 42 -37 38 0 -4 23 -46 51 -94 115 -200 191 -385 182 -443 -21 -140
-288 -20 -1101 499 -160 102 -310 197 -332 211 -23 14 -83 53 -135 87 -52 34
-95 59 -94 55 0 -4 37 -36 82 -72 45 -36 131 -105 192 -155 60 -49 117 -95
125 -102 8 -7 76 -62 150 -124 74 -61 155 -128 179 -148 24 -20 49 -40 55 -46
6 -5 43 -37 81 -70 39 -32 115 -100 170 -150 309 -281 387 -405 283 -450 -59
-25 -263 -5 -518 50 -64 13 -94 14 -48 0 64 -19 323 -150 406 -205 62 -41 102
-89 102 -122 0 -34 -91 -82 -195 -103 -68 -14 -192 -34 -244 -40 -31 -3 -92
-10 -136 -15 -44 -5 -120 -12 -170 -15 -49 -3 -108 -8 -130 -10 -22 -2 -89 -7
-150 -10 -60 -3 -128 -8 -150 -10 -22 -3 -83 -7 -135 -10 -52 -3 -140 -8 -195
-11 -176 -10 -209 -12 -277 -15 -68 -2 -97 -15 -35 -16 29 0 142 -6 332 -18
39 -2 115 -7 170 -10 55 -3 127 -8 160 -10 60 -5 138 -10 290 -20 44 -3 98 -8
121 -10 22 -3 71 -7 110 -10 92 -7 142 -12 184 -19 19 -3 57 -8 85 -11 156
-19 290 -56 334 -93 30 -24 33 -32 26 -60 -8 -38 -58 -81 -165 -144 -81 -47
-312 -158 -329 -158 -6 0 -11 -4 -11 -9 0 -4 21 -3 48 4 83 22 297 56 382 60
99 6 154 -7 176 -40 15 -24 15 -28 -10 -79 -40 -82 -173 -221 -407 -426 -119
-105 -163 -142 -360 -305 -90 -74 -170 -140 -178 -146 -24 -21 -235 -193 -286
-234 -28 -22 -56 -46 -64 -53 -8 -7 -25 -20 -38 -29 -13 -9 -22 -18 -19 -20 3
-4 113 66 336 212 82 53 339 217 362 230 10 6 64 39 120 75 56 36 107 67 113
70 5 3 71 41 145 86 247 147 430 232 516 238 83 7 98 -54 49 -186 -29 -76
-112 -240 -176 -345 -26 -44 -32 -59 -18 -50 10 6 19 15 19 19 0 14 275 284
320 315 51 34 97 51 123 45 59 -13 63 -186 11 -437 -8 -38 -17 -85 -20 -104
-6 -38 -121 -516 -153 -636 -12 -44 -24 -91 -27 -105 -2 -14 -9 -38 -14 -55
-5 -16 -26 -93 -46 -170 -20 -77 -47 -182 -60 -234 -14 -51 -24 -95 -22 -96 2
-2 27 60 57 138 30 78 60 156 67 172 7 17 40 100 73 185 61 158 202 510 226
565 7 17 37 84 66 150 138 316 243 475 311 475 26 0 66 -56 87 -123 28 -92 56
-248 67 -380 4 -42 10 -77 14 -77 4 0 11 37 15 82 3 46 10 103 15 128 5 25 11
65 15 90 8 60 42 186 59 218 53 103 123 70 224 -106 43 -74 152 -295 152 -307
0 -3 11 -28 24 -57 46 -99 259 -630 401 -1003 59 -153 87 -208 61 -120 -23 76
-61 220 -106 395 -12 47 -23 92 -25 100 -7 24 -25 93 -30 110 -20 79 -137 552
-141 575 -3 17 -11 57 -19 90 -7 33 -16 76 -19 95 -3 19 -8 46 -11 60 -3 14
-8 45 -11 70 -3 25 -7 56 -10 70 -18 106 2 230 38 243 22 7 81 -14 128 -46 46
-32 229 -210 315 -307 44 -51 47 -40 4 20 -9 14 -51 91 -91 170 -129 253 -144
350 -55 366 68 12 291 -91 612 -284 177 -106 783 -490 935 -592 132 -88 110
-68 -160 150 -118 96 -217 177 -220 180 -4 4 -192 160 -252 208 -12 9 -60 51
-108 92 -48 41 -111 95 -140 120 -223 191 -379 357 -415 443 -48 115 100 133
480 58 55 -11 109 -23 119 -27 14 -5 17 -4 12 4 -4 7 -12 12 -17 12 -18 0
-252 113 -337 163 -136 79 -186 143 -147 187 35 39 162 80 291 95 27 3 56 8
64 10 8 2 40 7 70 10 30 3 71 8 90 10 19 3 67 7 105 10 39 3 86 7 105 10 19 2
76 7 125 10 50 3 119 8 155 10 157 11 212 15 315 20 61 4 128 8 150 10 41 4
313 18 352 19 12 0 20 3 18 7 -3 3 -42 7 -87 9 -46 1 -101 3 -123 5 -61 5
-253 17 -320 20 -72 4 -241 14 -310 20 -27 2 -90 7 -140 10 -49 4 -103 8 -120
10 -16 1 -66 6 -110 10 -134 11 -159 14 -286 30 -95 12 -235 46 -284 69 -97
44 -97 94 0 166 77 58 289 169 399 210 49 18 22 21 -53 5 -39 -8 -90 -17 -114
-20 -23 -3 -49 -7 -57 -10 -29 -8 -116 -17 -195 -20 -89 -3 -137 11 -155 45
-22 41 41 139 176 274 91 91 292 274 352 319 15 12 29 24 32 27 3 4 91 77 195
163 105 87 197 163 205 170 37 30 250 205 284 232 21 17 48 38 60 49 11 10 31
25 44 34 12 8 21 16 19 19 -3 3 -336 -206 -373 -234 -5 -4 -19 -13 -30 -20
-10 -6 -74 -47 -141 -90 -68 -43 -131 -83 -140 -88 -10 -6 -44 -27 -76 -48
-127 -82 -458 -277 -555 -326 -288 -146 -380 -142 -348 18 14 71 150 346 219
444 l20 29 -22 -13 c-11 -8 -21 -17 -21 -21 0 -8 -240 -251 -288 -291 -18 -15
-49 -36 -70 -47 -97 -49 -132 -19 -133 117 0 68 22 255 35 294 3 8 7 30 10 50
3 20 24 115 47 210 22 96 42 181 44 189 21 91 145 573 203 788 21 78 35 142
31 142 -4 0 -11 -10 -15 -22 -6 -21 -166 -433 -195 -503 -7 -16 -13 -32 -14
-35 -15 -43 -137 -348 -197 -490 -177 -419 -293 -610 -370 -610 -50 0 -106
141 -133 337 -3 21 -7 47 -10 58 -2 11 -7 56 -11 100 -10 116 -18 119 -28 10
-15 -174 -57 -379 -90 -443 -105 -203 -264 80 -742 1319 -103 267 -135 346
-129 319z"/>
<path d="M4161 6174 c0 -11 3 -14 6 -6 3 7 2 16 -1 19 -3 4 -6 -2 -5 -13z"/>
<path d="M3015 5669 c-33 -4 -89 -10 -125 -13 -36 -4 -72 -9 -80 -11 -8 -2
-32 -6 -52 -9 -31 -5 -89 -17 -143 -30 -5 -2 -27 -6 -48 -11 -20 -4 -39 -10
-41 -14 -2 -3 10 -42 28 -86 37 -92 34 -90 161 -62 118 27 155 33 270 43 98
10 347 10 434 1 108 -12 261 -38 327 -56 65 -18 67 -17 98 68 16 44 30 83 30
87 1 10 -30 18 -179 48 -115 24 -143 28 -266 42 -81 9 -344 11 -414 3z"/>
<path d="M2260 5492 c-291 -120 -570 -305 -797 -528 -100 -99 -219 -232 -212
-237 26 -17 92 -59 122 -77 l39 -23 31 39 c142 175 413 404 609 513 110 61
171 91 243 121 44 19 84 37 89 41 8 7 -5 79 -28 150 l-11 36 -85 -35z"/>
<path d="M4045 5501 c-3 -11 -7 -28 -10 -38 -2 -10 -9 -40 -15 -66 -7 -28 -9
-51 -4 -56 5 -4 45 -22 89 -41 165 -70 345 -175 497 -292 93 -72 378 -349 378
-368 0 -18 16 -11 94 40 l77 51 -52 62 c-248 291 -565 527 -912 678 -62 27
-117 49 -124 49 -6 0 -14 -9 -18 -19z"/>
<path d="M1114 4538 c-115 -181 -197 -352 -268 -558 -25 -74 -80 -293 -90
-360 -15 -103 -26 -202 -30 -262 l-4 -67 36 3 c20 3 63 5 94 5 l57 1 5 43 c3
23 8 73 11 110 4 37 8 78 11 90 2 12 6 36 9 52 2 17 7 41 9 55 3 14 8 39 12
55 40 201 166 509 280 687 l43 67 -57 48 c-31 26 -65 53 -74 61 -15 12 -20 9
-44 -30z"/>
<path d="M5228 4557 c-14 -12 -46 -39 -71 -59 l-45 -38 50 -82 c138 -229 250
-520 284 -738 3 -19 8 -44 11 -55 3 -11 7 -31 8 -45 2 -14 5 -47 9 -75 3 -27
8 -74 11 -104 3 -30 7 -56 8 -57 1 -1 43 -4 94 -7 l91 -5 -4 57 c-2 31 -6 81
-9 111 -6 51 -8 69 -21 159 -2 18 -6 36 -8 40 -2 3 -7 24 -10 45 -28 178 -142
489 -249 681 -34 61 -117 195 -121 195 0 0 -13 -10 -28 -23z"/>
<path d="M36 3202 c-3 -5 1 -9 9 -9 8 0 12 4 9 9 -3 4 -7 8 -9 8 -2 0 -6 -4
-9 -8z"/>
<path d="M726 3102 c-2 -4 -3 -23 -1 -42 2 -19 6 -69 9 -110 4 -41 9 -82 11
-90 2 -8 6 -37 10 -64 3 -27 13 -79 21 -115 9 -36 17 -73 19 -81 39 -193 175
-512 307 -717 l40 -63 52 41 c28 23 61 49 73 59 l23 18 -51 83 c-129 214 -224
451 -277 694 -23 105 -28 141 -47 325 -3 30 -7 55 -8 56 -7 6 -177 12 -181 6z"/>
<path d="M5538 3102 c-27 -2 -48 -6 -49 -10 -1 -4 -2 -25 -4 -47 -4 -59 -15
-157 -20 -181 -3 -12 -7 -39 -10 -60 -4 -21 -15 -77 -26 -124 -11 -47 -22 -92
-24 -100 -25 -108 -127 -355 -195 -473 -28 -48 -50 -90 -50 -93 0 -3 -11 -20
-25 -38 l-25 -33 33 -29 c17 -16 51 -44 73 -61 l42 -33 40 63 c36 55 142 245
142 253 0 2 11 27 24 56 28 60 64 151 76 188 77 238 111 395 127 585 12 149
15 140 -37 140 -25 0 -66 -1 -92 -3z"/>
<path d="M1344 1732 c-104 -63 -101 -56 -41 -126 80 -93 243 -254 331 -326
121 -98 311 -221 448 -288 146 -72 268 -124 269 -114 1 13 7 37 23 98 21 82
22 81 -21 99 -94 39 -123 53 -203 94 -98 51 -244 140 -279 170 -13 12 -27 21
-30 21 -3 0 -17 10 -31 23 -14 12 -42 35 -64 51 -57 43 -252 234 -294 289 -20
26 -39 47 -42 47 -3 0 -32 -17 -66 -38z"/>
<path d="M4927 1701 c-78 -92 -226 -233 -312 -298 -17 -13 -52 -40 -80 -60
-118 -89 -354 -217 -500 -273 -14 -5 -25 -15 -25 -22 0 -19 38 -159 44 -166 9
-9 140 46 275 116 150 76 293 168 421 271 155 123 407 385 392 407 -7 10 -144
94 -153 94 -2 0 -30 -31 -62 -69z"/>
<path d="M2576 967 c-3 -13 -13 -41 -23 -63 -9 -21 -17 -42 -17 -46 -1 -3 -4
-10 -8 -14 -12 -12 -9 -31 5 -31 6 0 39 -8 72 -16 33 -9 76 -19 95 -22 19 -3
58 -10 85 -15 208 -39 526 -46 733 -16 18 3 52 8 75 11 74 11 271 55 278 63 6
6 -45 154 -58 171 -2 3 -36 -3 -76 -12 -98 -22 -227 -44 -312 -53 -137 -14
-453 -7 -550 12 -11 2 -36 6 -56 9 -19 2 -75 14 -123 25 -109 25 -113 25 -120
-3z"/>
</g>
</svg>
